<svg width="3300" height="1980" xmlns="http://www.w3.org/2000/svg" xmlns:xlink="http://www.w3.org/1999/xlink" xml:space="preserve" overflow="hidden"><defs><clipPath id="clip0"><rect x="1834" y="1222" width="3300" height="1980"/></clipPath></defs><g clip-path="url(#clip0)" transform="translate(-1834 -1222)"><rect x="1834" y="1222" width="3300" height="1980" fill="#000000" fill-opacity="0.501961"/><g><path d="M1954.5 2724.59 5003.5 2724.59M1954.5 2458.58 5003.5 2458.58M1954.5 2191.57 5003.5 2191.57M1954.5 1925.56 5003.5 1925.56M1954.5 1658.55 5003.5 1658.55M1954.5 1392.5 5003.5 1392.5" stroke="#D9D9D9" stroke-width="3.4375" stroke-linejoin="round" stroke-miterlimit="10" fill="none"/></g><g><path d="M2183.07 2469.08 2488.08 2469.08 2488.08 2991 2183.07 2991ZM2945.1 2186.07 3250.11 2186.07 3250.11 2991 2945.1 2991ZM3707.12 1746.06 4012.13 1746.06 4012.13 2991 3707.12 2991ZM4470.15 1496.05 4774.16 1496.05 4774.16 2991 4470.15 2991Z" fill="#156082"/></g><g><path d="M1954.5 2991.5 5003.5 2991.5" stroke="#D9D9D9" stroke-width="3.4375" stroke-linejoin="round" stroke-miterlimit="10" fill="none" fill-rule="evenodd"/></g><g><path d="M2335 2989 3098.1 2989 3860.13 2616.09 4622 1639" stroke="#E97132" stroke-width="10.3125" stroke-linecap="round" stroke-linejoin="round" stroke-miterlimit="10" fill="none"/></g><g><text fill="#FFFFFF" font-family="Aptos Narrow,Aptos Narrow_MSFontService,sans-serif" font-weight="400" font-stretch="semi-condensed" font-size="41" transform="matrix(1 0 0 1 5041.41 3003)">0</text></g><g><text fill="#FFFFFF" font-family="Aptos Narrow,Aptos Narrow_MSFontService,sans-serif" font-weight="400" font-stretch="semi-condensed" font-size="41" transform="matrix(1 0 0 1 5041.41 2774)">20</text></g><g><text fill="#FFFFFF" font-family="Aptos Narrow,Aptos Narrow_MSFontService,sans-serif" font-weight="400" font-stretch="semi-condensed" font-size="41" transform="matrix(1 0 0 1 5041.41 2546)">40</text></g><g><text fill="#FFFFFF" font-family="Aptos Narrow,Aptos Narrow_MSFontService,sans-serif" font-weight="400" font-stretch="semi-condensed" font-size="41" transform="matrix(1 0 0 1 5041.41 2317)">60</text></g><g><text fill="#FFFFFF" font-family="Aptos Narrow,Aptos Narrow_MSFontService,sans-serif" font-weight="400" font-stretch="semi-condensed" font-size="41" transform="matrix(1 0 0 1 5041.41 2089)">80</text></g><g><text fill="#FFFFFF" font-family="Aptos Narrow,Aptos Narrow_MSFontService,sans-serif" font-weight="400" font-stretch="semi-condensed" font-size="41" transform="matrix(1 0 0 1 5041.41 1860)">100</text></g><g><text fill="#FFFFFF" font-family="Aptos Narrow,Aptos Narrow_MSFontService,sans-serif" font-weight="400" font-stretch="semi-condensed" font-size="41" transform="matrix(1 0 0 1 5041.41 1632)">120</text></g><g><text fill="#FFFFFF" font-family="Aptos Narrow,Aptos Narrow_MSFontService,sans-serif" font-weight="400" font-stretch="semi-condensed" font-size="41" transform="matrix(1 0 0 1 5041.41 1404)">140</text></g><g><text fill="#FFFFFF" font-family="Aptos Narrow,Aptos Narrow_MSFontService,sans-serif" font-weight="400" font-stretch="semi-condensed" font-size="41" transform="matrix(1 0 0 1 1895.32 3003)">3</text></g><g><text fill="#FFFFFF" font-family="Aptos Narrow,Aptos Narrow_MSFontService,sans-serif" font-weight="400" font-stretch="semi-condensed" font-size="41" transform="matrix(1 0 0 1 1863.7 2736)">3,1</text></g><g><text fill="#FFFFFF" font-family="Aptos Narrow,Aptos Narrow_MSFontService,sans-serif" font-weight="400" font-stretch="semi-condensed" font-size="41" transform="matrix(1 0 0 1 1863.7 2470)">3,2</text></g><g><text fill="#FFFFFF" font-family="Aptos Narrow,Aptos Narrow_MSFontService,sans-serif" font-weight="400" font-stretch="semi-condensed" font-size="41" transform="matrix(1 0 0 1 1863.7 2203)">3,3</text></g><g><text fill="#FFFFFF" font-family="Aptos Narrow,Aptos Narrow_MSFontService,sans-serif" font-weight="400" font-stretch="semi-condensed" font-size="41" transform="matrix(1 0 0 1 1863.7 1937)">3,4</text></g><g><text fill="#FFFFFF" font-family="Aptos Narrow,Aptos Narrow_MSFontService,sans-serif" font-weight="400" font-stretch="semi-condensed" font-size="41" transform="matrix(1 0 0 1 1863.7 1670)">3,5</text></g><g><text fill="#FFFFFF" font-family="Aptos Narrow,Aptos Narrow_MSFontService,sans-serif" font-weight="400" font-stretch="semi-condensed" font-size="41" transform="matrix(1 0 0 1 1863.7 1404)">3,6</text></g><g><text fill="#FFFFFF" font-family="Aptos Narrow,Aptos Narrow_MSFontService,sans-serif" font-weight="400" font-stretch="semi-condensed" font-size="41" transform="matrix(1 0 0 1 2145.44 3056)">FlameCsv (SourceGen)</text></g><g><text fill="#FFFFFF" font-family="Aptos Narrow,Aptos Narrow_MSFontService,sans-serif" font-weight="400" font-stretch="semi-condensed" font-size="41" transform="matrix(1 0 0 1 2915.7 3056)">FlameCsv (Reflection)</text></g><g><text fill="#FFFFFF" font-family="Aptos Narrow,Aptos Narrow_MSFontService,sans-serif" font-weight="400" font-stretch="semi-condensed" font-size="41" transform="matrix(1 0 0 1 3806.66 3056)">Sylvan</text></g><g><text fill="#FFFFFF" font-family="Aptos Narrow,Aptos Narrow_MSFontService,sans-serif" font-weight="400" font-stretch="semi-condensed" font-size="41" transform="matrix(1 0 0 1 4590.89 3056)">Sep</text></g><g><text fill="#FFFFFF" font-family="Aptos Narrow,Aptos Narrow_MSFontService,sans-serif" font-weight="400" font-stretch="semi-condensed" font-size="64" transform="matrix(1 0 0 1 3219.59 1316)">Writing 5000 records</text></g><g><rect x="3167" y="3125" width="88" height="22" fill="#156082"/></g><g><text fill="#FFFFFF" font-family="Aptos Narrow,Aptos Narrow_MSFontService,sans-serif" font-weight="400" font-stretch="semi-condensed" font-size="41" transform="matrix(1 0 0 1 3263.84 3147)">Mean [ms]</text></g><g><path d="M3490 3136 3578 3136" stroke="#E97132" stroke-width="10.3125" stroke-linecap="round" stroke-linejoin="round" stroke-miterlimit="10" fill="none" fill-rule="evenodd"/></g><g><text fill="#FFFFFF" font-family="Aptos Narrow,Aptos Narrow_MSFontService,sans-serif" font-weight="400" font-stretch="semi-condensed" font-size="41" transform="matrix(1 0 0 1 3586.8 3147)">Allocated [KB]</text></g></g></svg>