<?xml version="1.0" encoding="UTF-8"?>
<svg version="1.1" xmlns="http://www.w3.org/2000/svg" width="503" height="503">
<path d="M0 0 C18.14525632 14.25446062 25.17641623 43.11615643 27.94140625 64.69921875 C28.56881689 71.08079153 28.84492463 77.48251084 29.12890625 83.88671875 C29.21067162 85.52804073 29.29335162 87.1693174 29.37695312 88.81054688 C29.70509192 95.44377897 29.98749605 102.05632304 29.94140625 108.69921875 C30.86759766 108.64701172 30.86759766 108.64701172 31.8125 108.59375 C40.18844802 108.32602563 46.63472099 109.52774806 53.25390625 114.88671875 C57.58316087 118.98450827 59.76013089 123.33437378 61.71484375 128.90234375 C65.48296094 139.34244826 72.24487043 148.19744531 78.94140625 156.94921875 C91.18763754 173.64185045 98.13408003 192.17122985 99.94140625 212.69921875 C101.00617188 212.37566406 102.0709375 212.05210937 103.16796875 211.71875 C110.80608248 209.65503604 117.79652467 210.20360464 124.94140625 213.69921875 C143.80410057 224.68396426 152.80549336 258.30926566 158.20996094 277.89111328 C170.81794412 326.29465888 160.618375 379.096298 135.62792969 421.95166016 C130.45986081 430.42078894 124.43858236 438.20687659 117.94140625 445.69921875 C117.18859375 446.57449219 116.43578125 447.44976562 115.66015625 448.3515625 C111.69179921 452.87032522 107.63249079 457.04954364 103.03125 460.921875 C100.64662155 462.94992349 98.36422677 465.07346591 96.06640625 467.19921875 C80.32497425 481.33779977 52.25746496 499.96285773 30.125 498.9765625 C22.11185467 497.9587927 16.29910006 494.74951686 10.94140625 488.69921875 C8.75844567 484.9684596 7.15124249 481.08981667 5.56640625 477.07421875 C5.14230469 476.05070312 4.71820313 475.0271875 4.28125 473.97265625 C3.14625629 471.2228923 2.03776464 468.46456588 0.94140625 465.69921875 C0.38138916 464.39138428 0.38138916 464.39138428 -0.18994141 463.05712891 C-1.05859375 460.69921875 -1.05859375 460.69921875 -1.05859375 457.69921875 C-2.26515625 458.13234375 -2.26515625 458.13234375 -3.49609375 458.57421875 C-19.71944972 463.69738379 -37.75016595 463.52283824 -54.05859375 458.69921875 C-54.18387451 459.42826416 -54.30915527 460.15730957 -54.43823242 460.90844727 C-55.44111855 465.42005346 -57.46270116 469.44436191 -59.37109375 473.63671875 C-59.76232422 474.51779297 -60.15355469 475.39886719 -60.55664062 476.30664062 C-64.37927879 484.76969527 -68.5127295 492.45062069 -77.16015625 496.7421875 C-88.43687733 500.98590056 -98.94209015 498.34594492 -109.59619141 493.55908203 C-120.5992547 488.40850513 -131.27836717 482.94846018 -141.05859375 475.69921875 C-141.80367188 475.16296875 -142.54875 474.62671875 -143.31640625 474.07421875 C-152.91307989 466.91970937 -161.8255326 458.37673822 -170.05859375 449.69921875 C-170.82623047 448.90644531 -170.82623047 448.90644531 -171.609375 448.09765625 C-187.86889999 430.47993705 -198.86188763 409.01097635 -207.05859375 386.69921875 C-207.3421875 385.9520459 -207.62578125 385.20487305 -207.91796875 384.43505859 C-212.68617608 371.80886808 -215.11592176 359.03019528 -217.05859375 345.69921875 C-217.25195312 344.46429688 -217.4453125 343.229375 -217.64453125 341.95703125 C-220.71060466 316.0999212 -217.58488111 289.21773259 -209.05859375 264.69921875 C-208.775 263.87856934 -208.49140625 263.05791992 -208.19921875 262.21240234 C-194.25625429 222.4882467 -194.25625429 222.4882467 -180.05859375 213.69921875 C-172.38232252 210.23737094 -165.42673759 209.82477051 -157.27734375 211.71875 C-156.0852832 211.99295776 -156.0852832 211.99295776 -154.86914062 212.27270508 C-153.97291992 212.48382935 -153.97291992 212.48382935 -153.05859375 212.69921875 C-153.46851563 211.466875 -153.8784375 210.23453125 -154.30078125 208.96484375 C-163.61918044 180.56358322 -163.90952891 154.42833259 -150.359375 127.296875 C-146.13542816 119.61783456 -142.02697951 113.99644354 -133.68359375 110.82421875 C-125.87089367 108.59958551 -118.36816415 109.0379649 -111.05859375 112.69921875 C-105.25570367 116.61844818 -102.56892572 120.26168032 -100.05859375 126.69921875 C-99.59710938 125.46429688 -99.135625 124.229375 -98.66015625 122.95703125 C-91.58475472 104.41523585 -82.40925399 88.63349156 -70.57324219 72.74755859 C-57.84667889 55.53674846 -48.26335891 38.32302915 -42.54321289 17.64379883 C-40.27048841 9.62237796 -37.42038632 3.32288357 -30.05859375 -1.30078125 C-20.29470713 -5.98594757 -9.22975821 -5.83208631 0 0 Z " fill="#010000" transform="translate(287.05859375,4.30078125)"/>
<path d="M0 0 C1.32 0 2.64 0 4 0 C4 0.66 4 1.32 4 2 C6.475 2.495 6.475 2.495 9 3 C9 3.66 9 4.32 9 5 C9.99 5 10.98 5 12 5 C12 5.66 12 6.32 12 7 C12.54011719 7.05285156 13.08023438 7.10570312 13.63671875 7.16015625 C17.11069045 8.39470818 19.29320607 10.84914082 21.8125 13.4375 C22.34512451 13.98027588 22.87774902 14.52305176 23.42651367 15.08227539 C34.93448715 27.0419539 41.80477337 41.37786237 47 57 C49.30331399 63.64519325 51.86264601 70.04866883 54.83984375 76.421875 C55.88149432 78.73665405 56.77909666 81.04594083 57.625 83.4375 C58.8402144 86.58601003 59.98101134 88.39213965 62 91 C62.69103876 92.64533037 63.38006665 94.2915929 64.05078125 95.9453125 C65.19396191 98.4198517 66.57139415 100.67895642 68 103 C72.4259931 110.24947146 75.20682519 118.01069853 78 126 C78.2573291 126.6405835 78.5146582 127.28116699 78.77978516 127.94116211 C81.17530835 134.27300106 81.46781795 140.08399388 81.375 146.8125 C81.36412354 147.87839355 81.35324707 148.94428711 81.34204102 150.04248047 C80.99439689 167.17280873 74.99406206 182.52877814 63 195 C52.00657471 205.23525803 38.9985337 211.61588662 23.875 211.4375 C22.95920166 211.42920166 22.04340332 211.42090332 21.09985352 211.41235352 C5.49600072 211.0288424 -7.93565327 206.10173399 -19.3125 195.1875 C-34.52801645 178.97224609 -37.69681321 162.20503655 -37.12304688 140.67480469 C-36.30992778 122.99914431 -24.16196422 106.30558466 -15.125 91.75 C-13.74548363 89.50259372 -12.37040329 87.25293058 -11 85 C-10.62020996 84.38108887 -10.24041992 83.76217773 -9.84912109 83.12451172 C-8.6513041 81.15620971 -7.47984859 79.17399769 -6.3125 77.1875 C-5.95623535 76.6090332 -5.5999707 76.03056641 -5.23291016 75.43457031 C1.84027548 63.19616227 3.79830656 50.54482592 3.54199219 36.64404297 C3.49977426 34.23713046 3.50098072 31.83300627 3.5078125 29.42578125 C3.47326045 21.40435823 2.98822527 14.1164929 0.63867188 6.37402344 C0 4 0 4 0 0 Z " fill="#FCA719" transform="translate(237,231)"/>
<path d="M0 0 C2.9112409 0.33141358 3.90832197 0.90148309 5.9375 3.08203125 C6.9584375 4.43361328 6.9584375 4.43361328 8 5.8125 C10.61248033 9.17202738 13.17461733 12.25159966 16.2890625 15.15234375 C17.11857422 15.92904419 17.11857422 15.92904419 17.96484375 16.72143555 C19.05315 17.72347753 20.15706972 18.70887869 21.27734375 19.67504883 C22.7890625 21.078125 22.7890625 21.078125 25 24 C25.06816896 29.37915058 22.97103061 33.73501694 20.6875 38.5 C13.72697292 53.71301068 11.8034133 68.70938278 11.75976562 85.32641602 C11.75012552 87.53375917 11.71904794 89.74014233 11.6875 91.94726562 C11.44977262 123.81474314 24.1393006 152.51682642 44 177 C44.66902344 177.825 45.33804688 178.65 46.02734375 179.5 C56.38422728 191.69951925 69.90136746 200.46312589 83.80078125 208.10546875 C86.77576998 209.86721421 89.36469435 211.77012599 92 214 C91.0499978 219.46919428 88.97052767 224.19093372 86.75 229.25 C86.36714844 230.17296875 85.98429687 231.0959375 85.58984375 232.046875 C85.20441406 232.9234375 84.81898438 233.8 84.421875 234.703125 C84.07737305 235.50395508 83.73287109 236.30478516 83.37792969 237.12988281 C82 239 82 239 79.56274414 239.83837891 C75.83756463 240.07330973 72.98829708 238.66564098 69.6875 237.125 C68.64287598 236.65006104 68.64287598 236.65006104 67.57714844 236.16552734 C29.12624151 218.32133682 -0.12191887 186.98435503 -15.11328125 147.265625 C-30.94320884 103.79575767 -29.27597145 59.26022196 -10.05688477 17.17163086 C-7.13804959 11.17416288 -3.79435531 5.48073545 0 0 Z " fill="#B5022C" transform="translate(119,239)"/>
<path d="M0 0 C0.99 0 1.98 0 3 0 C4.74213909 2.38886568 6.2230704 4.69517504 7.6875 7.25 C8.12666748 8.00998291 8.56583496 8.76996582 9.01831055 9.55297852 C27.36297138 42.24797856 34.00442108 81.32250582 26 118 C25.72946691 119.36829189 25.45993571 120.73678224 25.19140625 122.10546875 C20.10150407 146.82743335 9.56904047 170.14313225 -6 190 C-6.42313477 190.54269531 -6.84626953 191.08539063 -7.28222656 191.64453125 C-11.75559935 197.32866529 -16.35126941 202.67619824 -21.9453125 207.29296875 C-24.33665424 209.27969183 -26.5948649 211.38679068 -28.875 213.5 C-37.72859998 221.4520936 -47.62155044 227.30056367 -58 233 C-59.14855469 233.63808594 -59.14855469 233.63808594 -60.3203125 234.2890625 C-66.02372322 237.31394835 -72.48535378 240 -79 240 C-79.23187012 239.41508789 -79.46374023 238.83017578 -79.70263672 238.22753906 C-80.75826489 235.56763039 -81.81660382 232.9088084 -82.875 230.25 C-83.23980469 229.32960938 -83.60460937 228.40921875 -83.98046875 227.4609375 C-84.33496094 226.57148438 -84.68945312 225.68203125 -85.0546875 224.765625 C-85.37937012 223.94868164 -85.70405273 223.13173828 -86.03857422 222.29003906 C-86.96739719 219.99245796 -86.96739719 219.99245796 -88.12158203 217.83105469 C-89 216 -89 216 -89 213.9375 C-87.43388886 210.90315967 -85.08600397 210.34661991 -82 209 C-75.8903561 206.17448045 -70.42309143 202.7707725 -64.9375 198.875 C-64.22400391 198.37226563 -63.51050781 197.86953125 -62.77539062 197.3515625 C-58.82694354 194.50718356 -55.36606568 191.53549851 -52 188 C-50.74123047 186.7934375 -50.74123047 186.7934375 -49.45703125 185.5625 C-24.3363291 161.22102199 -9.2307583 128.10524902 -8.59100342 92.948349 C-8.56848599 90.79872572 -8.56184018 88.64973729 -8.5625 86.5 C-8.5614325 85.75632172 -8.56036499 85.01264343 -8.55926514 84.24642944 C-8.59852057 65.22767946 -12.51104281 47.79838459 -21.140625 30.74609375 C-22.4197169 28.14721157 -22.61414591 26.86601424 -22 24 C-20.41233887 22.58123899 -18.8089343 21.17635642 -17.1328125 19.86328125 C-12.85169396 16.12318319 -9.52291383 11.44053984 -6 7 C-4.06345303 4.56356347 -2.12730881 2.27925944 0 0 Z " fill="#B5022C" transform="translate(397,239)"/>
<path d="M0 0 C2.21484375 0.0390625 2.21484375 0.0390625 5 1 C6.77878168 3.46569737 8.16919222 5.70534975 9.5625 8.375 C9.95453613 9.10017822 10.34657227 9.82535645 10.75048828 10.57250977 C13.73822178 16.21496507 16.07765202 21.91093838 18 28 C18.28488281 28.7425 18.56976563 29.485 18.86328125 30.25 C22.15416371 38.98409562 22.03875997 48.33653828 22.29003906 57.57104492 C21.19741322 97.39577077 21.19741322 97.39577077 32 133 C34.2091541 148.59122428 34.84793526 165.17130703 29 180 C27.10546875 179.76171875 27.10546875 179.76171875 25 179 C24.05078125 177.20703125 24.05078125 177.20703125 23.3125 174.8125 C19.60492736 164.69571263 12.84232596 156.06122465 6.4375 147.5 C-1.79852344 136.43002992 -7.83200465 125.185293 -12 112 C-12.66 112 -13.32 112 -14 112 C-14.63309191 113.18320576 -15.25596718 114.37187848 -15.875 115.5625 C-16.22304687 116.22378906 -16.57109375 116.88507813 -16.9296875 117.56640625 C-19.94983613 124.43338654 -20.31047203 130.44701942 -20.25 137.875 C-20.25773437 138.81730469 -20.26546875 139.75960937 -20.2734375 140.73046875 C-20.25849271 146.1330112 -19.76837644 150.96260222 -18.30664062 156.17211914 C-18 158 -18 158 -19.25 160.5625 C-21 162 -21 162 -23 162 C-23.2475 162.639375 -23.495 163.27875 -23.75 163.9375 C-25 166 -25 166 -27.125 166.75 C-27.74375 166.8325 -28.3625 166.915 -29 167 C-29 167.66 -29 168.32 -29 169 C-29.99 169 -30.98 169 -32 169 C-32 169.66 -32 170.32 -32 171 C-34.53811361 172.23279804 -36.53954196 172.98788268 -39.375 173.0625 C-47.20448303 169.89342354 -52.28930444 161.19176887 -56 154 C-62.43015702 138.73783319 -61.79477634 121.33911383 -56 106 C-50.06115331 92.07988173 -41.71253146 79.88922032 -32.84472656 67.70166016 C-28.38950147 61.57282679 -24.09460614 55.37777362 -20 49 C-19.48179687 48.21109375 -18.96359375 47.4221875 -18.4296875 46.609375 C-9.49875056 32.48820769 -3.94393063 16.16335457 0 0 Z " fill="#CF0027" transform="translate(269,24)"/>
<path d="M0 0 C0.99 0.33 1.98 0.66 3 1 C3.63956649 3.4940033 4.1222959 5.90757857 4.5625 8.4375 C7.52000062 22.80599837 15.5015846 34.55917166 24.546875 45.8515625 C31.23796304 54.43916912 37.22826262 63.75714457 41 74 C41.25942383 74.68819824 41.51884766 75.37639648 41.78613281 76.08544922 C50.72873625 100.55641421 49.45784815 128.24092771 38.92724609 152.06396484 C30.59223964 169.46696673 16.50497368 182.04848949 -1 190 C-1.99 190 -2.98 190 -4 190 C-10.03140022 175.63234304 -10.78066312 163.8599872 -5 149 C-3.43294818 145.70233481 -1.72083166 142.49249234 0.09375 139.32470703 C4.95507082 130.82921787 6.55923976 123.91954659 6.5 114.0625 C6.49427979 112.95511475 6.48855957 111.84772949 6.48266602 110.70678711 C6.27500746 101.0754854 4.4912853 92.9231151 1 84 C0.71640625 83.26201172 0.4328125 82.52402344 0.140625 81.76367188 C-1.04697661 78.68267911 -2.24560476 75.60657208 -3.46948242 72.53979492 C-10.93014505 53.75142464 -14.87666045 32.41261289 -7.18701172 12.94140625 C-2.53606291 2.53606291 -2.53606291 2.53606291 0 0 Z " fill="#EC7615" transform="translate(161,138)"/>
<path d="M0 0 C1.9765625 0.140625 1.9765625 0.140625 4 1 C4.7734375 2.984375 4.7734375 2.984375 5.375 5.75 C9.18179762 18.46470405 18.57556202 29.48137571 26.4375 40 C35.62235157 52.50870578 41.31836911 66.37929204 42 82 C42.0515625 82.81210938 42.103125 83.62421875 42.15625 84.4609375 C42.50811097 94.45965331 40.54384091 104.01853643 37.0546875 113.34765625 C36.3255735 115.31416004 35.59909792 117.28164369 34.875 119.25 C34.50318604 120.25949707 34.13137207 121.26899414 33.74829102 122.30908203 C30.99648551 130.4250468 30.72298524 137.5524268 30.9375 146.0625 C31.07562494 154.38364215 30.56611228 159.89752429 24.82641602 166.21069336 C17.116102 173.55112988 17.116102 173.55112988 12.29296875 174.57421875 C5.80062345 172.94836737 1.03079787 166.48969412 -2.375 161.0625 C-10.69657795 146.07904939 -10.00554204 131.92232522 -5.5625 115.75 C0.9870947 91.31547245 0.35303567 68.04494339 -5.44970703 43.45068359 C-8.66721027 29.12180271 -7.24059431 14.3177294 -1 1 C-0.67 0.67 -0.34 0.34 0 0 Z " fill="#EC7615" transform="translate(321,137)"/>
<path d="M0 0 C4.20275398 1.49832334 5.35674258 3.911049 7.34765625 7.78515625 C7.95287109 8.95626953 8.55808594 10.12738281 9.18164062 11.33398438 C9.49077393 11.94717529 9.79990723 12.56036621 10.1184082 13.19213867 C11.05035116 15.03843167 12.00094671 16.87407826 12.95507812 18.70898438 C18.45290605 29.375162 21.51627548 37.56949226 21.375 49.625 C21.38660156 50.62273437 21.39820313 51.62046875 21.41015625 52.6484375 C21.37403714 61.75045238 18.98708385 68.67670825 12.609375 75.484375 C8.02906297 79.44212035 3.76430213 79.50128979 -2.1328125 79.37109375 C-6.59857937 78.7930994 -9.09774008 77.99492445 -12.16796875 74.609375 C-12.83441406 73.66578125 -13.50085938 72.7221875 -14.1875 71.75 C-14.86167969 70.81671875 -15.53585938 69.8834375 -16.23046875 68.921875 C-19.84301376 62.95678964 -20.36406215 57.67834002 -20.375 50.875 C-20.39949219 50.09640625 -20.42398438 49.3178125 -20.44921875 48.515625 C-20.50545812 37.00529974 -15.33263658 27.0510958 -10 17.125 C-9.47921875 16.13242187 -8.9584375 15.13984375 -8.421875 14.1171875 C-5.83581382 9.23240526 -3.18580947 4.51833555 0 0 Z " fill="#040200" transform="translate(258,337)"/>
</svg>
