<?xml version="1.0" encoding="UTF-8"?>
<!DOCTYPE svg PUBLIC "-//W3C//DTD SVG 1.1//EN" "http://www.w3.org/Graphics/SVG/1.1/DTD/svg11.dtd">
<svg xmlns="http://www.w3.org/2000/svg" version="1.1" width="786px" height="786px" style="shape-rendering:geometricPrecision; text-rendering:geometricPrecision; image-rendering:optimizeQuality; fill-rule:evenodd; clip-rule:evenodd" xmlns:xlink="http://www.w3.org/1999/xlink">
<g><path style="opacity:0.995" fill="#010000" d="M 397.5,3.5 C 425.717,2.51882 446.217,14.5188 459,39.5C 472.733,65.4307 480.067,93.0974 481,122.5C 497.23,131.741 507.897,145.407 513,163.5C 526.963,180.167 537.63,198.833 545,219.5C 558.453,223.72 569.453,231.387 578,242.5C 620.399,310.241 625.732,380.907 594,454.5C 586.595,470.992 577.428,486.326 566.5,500.5C 567.002,501.521 567.668,501.688 568.5,501C 578.881,486.806 592.881,478.806 610.5,477C 627.167,476.333 643.833,476.333 660.5,477C 693.501,482.504 710.834,502.004 712.5,535.5C 712.273,541.587 711.44,547.587 710,553.5C 686.196,613.913 662.196,674.246 638,734.5C 627.831,760.653 608.664,774.486 580.5,776C 567.795,776.848 555.129,776.515 542.5,775C 527.42,771.568 515.253,763.734 506,751.5C 500.95,742.342 496.283,733.008 492,723.5C 478.257,744.902 459.424,760.068 435.5,769C 387.958,784.227 343.958,777.394 303.5,748.5C 258.685,779.313 211.018,784.479 160.5,764C 109.651,738.852 80.4846,698.018 73,641.5C 69.1423,579.72 92.6423,531.553 143.5,497C 161.121,486.404 180.121,479.904 200.5,477.5C 191.379,459.912 183.879,441.578 178,422.5C 160.376,356.307 170.709,294.974 209,238.5C 213.864,233.323 219.364,228.99 225.5,225.5C 223.77,193.069 232.27,163.736 251,137.5C 266.505,121.608 285.338,114.942 307.5,117.5C 317,103.833 326.5,90.1667 336,76.5C 342.382,63.6871 347.382,50.3538 351,36.5C 360.693,17.2433 376.193,6.24334 397.5,3.5 Z"/></g>
<g><path style="opacity:1" fill="#ce0027" d="M 401.5,59.5 C 402.873,59.3433 404.207,59.51 405.5,60C 414.587,72.8686 420.42,87.0353 423,102.5C 422.604,135.151 426.271,167.151 434,198.5C 435.48,212.44 434.313,226.107 430.5,239.5C 429.178,239.67 428.011,239.337 427,238.5C 425.47,233.108 423.137,228.108 420,223.5C 413.333,214.167 406.667,204.833 400,195.5C 395.419,188.013 392.252,180.013 390.5,171.5C 389.022,171.238 387.689,171.571 386.5,172.5C 380.855,182.817 379.022,193.817 381,205.5C 381.584,209.928 382.251,214.261 383,218.5C 377.982,225.256 371.482,229.923 363.5,232.5C 355.544,228.367 349.71,222.034 346,213.5C 339.47,195.162 340.137,177.162 348,159.5C 350.333,155.167 352.667,150.833 355,146.5C 366.494,130.848 377.494,114.848 388,98.5C 390.719,91.394 393.719,84.394 397,77.5C 399.019,71.6133 400.519,65.6133 401.5,59.5 Z"/></g>
<g><path style="opacity:1" fill="#eb7615" d="M 453.5,172.5 C 454.822,172.33 455.989,172.663 457,173.5C 462.762,189.023 471.095,203.023 482,215.5C 495.712,236.993 498.712,259.993 491,284.5C 488.667,291.167 486.333,297.833 484,304.5C 483.667,313.5 483.333,322.5 483,331.5C 477.883,337.294 472.216,342.294 466,346.5C 453.553,339.653 446.553,328.986 445,314.5C 444.333,309.5 444.333,304.5 445,299.5C 451.938,279.813 454.605,259.48 453,238.5C 452.056,233.084 450.723,227.751 449,222.5C 446.459,210.198 446.126,197.865 448,185.5C 449.383,180.956 451.216,176.623 453.5,172.5 Z"/></g>
<g><path style="opacity:1" fill="#eb7615" d="M 293.5,173.5 C 295.017,173.511 296.184,174.177 297,175.5C 297.202,180.989 298.202,186.322 300,191.5C 307.154,204.979 315.488,217.646 325,229.5C 344.207,262.62 345.541,296.62 329,331.5C 319.705,346.151 307.039,356.817 291,363.5C 284.959,354.436 282.959,344.436 285,333.5C 288.499,323.499 292.832,313.832 298,304.5C 300.275,294.613 300.941,284.613 300,274.5C 295.214,258.939 289.881,243.605 284,228.5C 279.451,208.604 282.618,190.271 293.5,173.5 Z"/></g>
<g><path style="opacity:1" fill="#fca719" d="M 369.5,266.5 C 374.78,267.306 379.446,269.473 383.5,273C 397.521,284.902 407.687,299.402 414,316.5C 417.42,327.763 421.42,338.763 426,349.5C 432.703,361.23 439.036,373.23 445,385.5C 453.43,407.731 452.097,429.398 441,450.5C 425.997,471.744 405.497,480.578 379.5,477C 343.355,464.924 327.855,439.757 333,401.5C 335.92,393.428 339.253,385.428 343,377.5C 354.746,360.678 364.413,342.678 372,323.5C 374.666,304.296 373.833,285.296 369.5,266.5 Z"/></g>
<g><path style="opacity:1" fill="#b4022c" d="M 251.5,274.5 C 253.903,274.393 255.736,275.393 257,277.5C 262.594,285.098 268.927,292.098 276,298.5C 276.167,299.333 276.333,300.167 276.5,301C 269.387,314.673 264.887,329.173 263,344.5C 258.163,396.792 275.996,439.292 316.5,472C 325.333,477.5 334.167,483 343,488.5C 340.524,497.303 337.024,505.803 332.5,514C 322.912,512.725 313.912,509.392 305.5,504C 260.487,475.93 234.32,435.43 227,382.5C 222.145,343.334 230.312,307.334 251.5,274.5 Z"/></g>
<g><path style="opacity:1" fill="#b4022c" d="M 529.5,274.5 C 530.552,274.351 531.552,274.517 532.5,275C 563.383,324.971 566.883,377.138 543,431.5C 525.889,467.278 499.389,493.778 463.5,511C 459.177,512.276 454.844,513.442 450.5,514.5C 448.352,507.222 445.518,500.222 442,493.5C 441.009,491.553 440.675,489.553 441,487.5C 498.878,457.096 525.544,409.096 521,343.5C 518.501,328.672 514.001,314.505 507.5,301C 507.667,300.167 507.833,299.333 508,298.5C 516.116,291.225 523.282,283.225 529.5,274.5 Z"/></g>
<g><path style="opacity:1" fill="#050300" d="M 389.5,373.5 C 391.144,373.286 392.644,373.62 394,374.5C 400.748,385.996 406.415,397.996 411,410.5C 411.667,418.167 411.667,425.833 411,433.5C 407.781,447.184 399.281,453.017 385.5,451C 373.756,444.321 368.756,434.154 370.5,420.5C 370.556,414.61 371.722,408.943 374,403.5C 379.083,393.39 384.249,383.39 389.5,373.5 Z"/></g>
<g><path style="opacity:1" fill="#fcfcfc" d="M 206.5,534.5 C 231.303,532.022 253.637,538.189 273.5,553C 277.071,556.401 280.405,559.901 283.5,563.5C 275.777,571.053 268.611,579.053 262,587.5C 249.791,575.229 234.958,569.229 217.5,569.5C 184.534,574.136 167.868,593.136 167.5,626.5C 166.958,652.436 178.625,670.269 202.5,680C 226.32,685.977 246.487,680.143 263,662.5C 270.5,670 278,677.5 285.5,685C 256.578,717.984 221.911,725.984 181.5,709C 153.423,693.234 136.59,669.401 131,637.5C 128.208,598.921 142.708,568.754 174.5,547C 184.524,540.808 195.19,536.641 206.5,534.5 Z"/></g>
<g><path style="opacity:1" fill="#fcfcfc" d="M 379.5,534.5 C 404.494,531.719 425.828,539.052 443.5,556.5C 437,564.833 430.5,573.167 424,581.5C 408.558,568.246 391.392,565.413 372.5,573C 365.374,583.532 366.041,593.532 374.5,603C 376.5,604 378.5,605 380.5,606C 396.29,609.152 411.29,614.485 425.5,622C 452.271,641.518 457.437,665.685 441,694.5C 424.012,714.141 402.512,721.974 376.5,718C 359.647,714.907 344.981,707.574 332.5,696C 339.333,687.167 346.167,678.333 353,669.5C 369.008,685.232 387.508,689.065 408.5,681C 410.617,679.269 412.117,677.102 413,674.5C 416.014,665.411 414.514,657.244 408.5,650C 396.473,645.239 384.14,641.239 371.5,638C 339.712,625.588 327.545,602.755 335,569.5C 344.147,550.512 358.98,538.845 379.5,534.5 Z"/></g>
<g><path style="opacity:1" fill="#fdfdfd" d="M 479.5,535.5 C 492.327,534.34 505.327,534.173 518.5,535C 519,535.5 519.5,536 520,536.5C 535,573.833 550,611.167 565,648.5C 566.814,649.76 568.647,649.76 570.5,648.5C 585.622,611.259 600.456,573.926 615,536.5C 615.5,536 616,535.5 616.5,535C 629.162,534.5 641.829,534.333 654.5,534.5C 630.592,595.486 606.259,656.319 581.5,717C 572.896,718.542 564.23,718.876 555.5,718C 553.396,716.307 551.896,714.14 551,711.5C 527.238,652.693 503.405,594.027 479.5,535.5 Z"/></g>
</svg>
