<?xml version="1.0" encoding="UTF-8"?>
<svg version="1.1" xmlns="http://www.w3.org/2000/svg" width="512" height="512">
<path d="M0 0 C-1.15721631 5.49677748 -2.50672914 10.89660719 -4 16.3125 C-10.42264706 40.34410191 -10.67186738 65.15678647 1.8671875 87.296875 C6.75703476 95.37169349 12.5912683 102.59968616 18.59375 109.86328125 C45.91486492 142.93910228 53.92060778 171.9433253 50 215 C62.94063399 187.33757734 64.57054985 160.80223445 61.4375 130.79296875 C61.03763893 126.83418801 60.91319479 122.9767636 61 119 C78.41868939 133.08319568 91.46664246 153.00096371 103 172 C103.72848145 173.19979492 103.72848145 173.19979492 104.47167969 174.42382812 C132.83809391 221.610092 149.66869871 277.66857461 136.5234375 332.45703125 C133.22782497 345.22244996 128.89675881 357.21791575 123 369 C122.51877686 369.98468262 122.51877686 369.98468262 122.02783203 370.98925781 C102.29197152 411.14256264 65.29809672 442.65000268 23.26831055 457.48217773 C13.99118265 460.62248203 4.5866924 463.01951564 -5 465 C-6.00289062 465.21527344 -7.00578125 465.43054688 -8.0390625 465.65234375 C-53.57711841 474.06031364 -103.17540665 462.54992774 -141.19189453 436.53808594 C-149.62453144 430.61754925 -157.37875647 423.92046665 -165 417 C-165.77085937 416.30261719 -166.54171875 415.60523438 -167.3359375 414.88671875 C-182.18599443 400.7337053 -193.44199324 382.48281815 -202 364 C-202.78310547 362.34291016 -202.78310547 362.34291016 -203.58203125 360.65234375 C-210.56111744 345.20259886 -215.58070271 328.78024602 -218 312 C-218.19529297 310.71029297 -218.19529297 310.71029297 -218.39453125 309.39453125 C-223.07967978 272.10074892 -212.0033192 233.3074008 -196 200 C-195.52095215 198.98848877 -195.52095215 198.98848877 -195.03222656 197.95654297 C-184.98373443 176.82410496 -172.4661403 153.82025084 -156 137 C-155.34 137 -154.68 137 -154 137 C-154.15984375 137.84046875 -154.3196875 138.6809375 -154.484375 139.546875 C-156.66705471 154.16421487 -154.43421982 165.95785956 -146 178 C-143.40259395 180.83481394 -140.58328738 183.34992236 -137.6875 185.875 C-130.8245392 192.07065665 -125.12199755 198.2951148 -120 206 C-120.08564209 205.43192627 -120.17128418 204.86385254 -120.25952148 204.27856445 C-125.52146305 169.12907906 -126.19228059 135.2250838 -112 102 C-111.72736328 101.35740234 -111.45472656 100.71480469 -111.17382812 100.05273438 C-103.1124635 81.52835146 -90.04906327 66.27757213 -76 52 C-75.02005911 50.98251592 -74.04085518 49.9643214 -73.0625 48.9453125 C-67.06641278 42.79591624 -60.75385388 37.2973222 -54 32 C-53.0615625 31.23300781 -52.123125 30.46601562 -51.15625 29.67578125 C-14.07347021 0 -14.07347021 0 0 0 Z M-119 208 C-118 210 -118 210 -118 210 Z " fill="#D10027" transform="translate(295,28)"/>
<path d="M0 0 C0.05945801 0.91942383 0.05945801 0.91942383 0.12011719 1.85742188 C2.14035499 31.70336603 9.58569654 56.66140326 31.6875 77.76171875 C34.35373535 80.34238236 36.75612517 83.07537318 39.13671875 85.91796875 C40.80196644 87.77871721 42.5263837 89.50308466 44.3125 91.24609375 C60.19673119 107.04239325 71.34225459 126.76140279 78 148 C78.54140625 149.64742188 78.54140625 149.64742188 79.09375 151.328125 C83.73379977 168.42756768 82.96033036 189.35015914 77 206 C76.63777344 207.05703125 76.27554688 208.1140625 75.90234375 209.203125 C67.57576976 231.21915113 49.88020583 248.80045245 29 259 C16.07258304 264.71590257 1.19271723 268.12478307 -13 267 C-14.03898437 266.91878906 -15.07796875 266.83757812 -16.1484375 266.75390625 C-40.7355902 264.02512614 -61.41682895 252.28256578 -77.05273438 233.28857422 C-96.75453835 208.24895591 -99.83035268 178.96907941 -99 148 C-98.34 147.67 -97.68 147.34 -97 147 C-96.50371094 148.05058594 -96.00742188 149.10117187 -95.49609375 150.18359375 C-89.67295977 162.31102885 -84.12437716 172.17622994 -72 179 C-69.81693598 179.69755257 -69.81693598 179.69755257 -68 180 C-68.51949219 179.15179688 -69.03898437 178.30359375 -69.57421875 177.4296875 C-81.70515902 157.20077678 -86.60686023 134.40970656 -81.8125 111.00390625 C-70.99309048 71.00330088 -41.35743146 39.37005592 -12.8125 10.6875 C-11.57282471 9.44069458 -11.57282471 9.44069458 -10.30810547 8.16870117 C-9.53225098 7.39502197 -8.75639648 6.62134277 -7.95703125 5.82421875 C-6.92026245 4.78914185 -6.92026245 4.78914185 -5.86254883 3.7331543 C-1.85068319 0 -1.85068319 0 0 0 Z " fill="#FEA81A" transform="translate(265,187)"/>
<path d="M0 0 C17.41868939 14.08319568 30.46664246 34.00096371 42 53 C42.72848145 54.19979492 42.72848145 54.19979492 43.47167969 55.42382812 C71.83809391 102.610092 88.66869871 158.66857461 75.5234375 213.45703125 C72.22782497 226.22244996 67.89675881 238.21791575 62 250 C61.67918457 250.65645508 61.35836914 251.31291016 61.02783203 251.98925781 C41.29197152 292.14256264 4.29809672 323.65000268 -37.73168945 338.48217773 C-47.00881735 341.62248203 -56.4133076 344.01951564 -66 346 C-67.00289062 346.21527344 -68.00578125 346.43054688 -69.0390625 346.65234375 C-112.15944657 354.6139241 -160.24114955 344.78513853 -197 321 C-198.87890625 319.26953125 -198.87890625 319.26953125 -200 318 C-195.90748938 318.57731341 -192.04898003 319.5231374 -188.09326172 320.71411133 C-143.76868537 333.91977149 -94.50978106 327.79885921 -53.80859375 306.12890625 C-42.76390412 300.03814793 -32.4868232 293.35428772 -23 285 C-22.13761719 284.2471875 -21.27523437 283.494375 -20.38671875 282.71875 C-17.89415895 280.50986544 -15.43932907 278.26743004 -13 276 C-12.00226563 275.08347656 -12.00226563 275.08347656 -10.984375 274.1484375 C17.17265699 247.25045978 36.71744487 204.92309817 38.10839844 165.96386719 C38.88187263 124.23430048 30.78099698 76.53671536 5.1875 42.12109375 C1.45190707 36.36582932 1.67482766 29.09816119 1.1875 22.4375 C1.06763871 21.03955077 0.94590689 19.64176061 0.82226562 18.24414062 C0.30253781 12.15042096 -0.06023859 6.1203385 0 0 Z " fill="#B7012C" transform="translate(356,147)"/>
<path d="M0 0 C0.05945801 0.91942383 0.05945801 0.91942383 0.12011719 1.85742188 C2.14035499 31.70336603 9.58569654 56.66140326 31.6875 77.76171875 C34.35373535 80.34238236 36.75612517 83.07537318 39.13671875 85.91796875 C40.80196644 87.77871721 42.5263837 89.50308466 44.3125 91.24609375 C60.19673119 107.04239325 71.34225459 126.76140279 78 148 C78.54140625 149.64742188 78.54140625 149.64742188 79.09375 151.328125 C83.73379977 168.42756768 82.96033036 189.35015914 77 206 C76.63777344 207.05703125 76.27554688 208.1140625 75.90234375 209.203125 C67.57576976 231.21915113 49.88020583 248.80045245 29 259 C16.07258304 264.71590257 1.19271723 268.12478307 -13 267 C-14.03898437 266.91878906 -15.07796875 266.83757812 -16.1484375 266.75390625 C-34.92821239 264.66965206 -51.71772186 257.31305495 -66 245 C-65.34 244.67 -64.68 244.34 -64 244 C-63.01 244.33 -62.02 244.66 -61 245 C-35.44006913 246.82913334 -12.71917974 242.37046571 7.625 225.87109375 C20.62322613 214.47783151 30.22403119 201.40292921 36 185 C36.39316406 183.93007813 36.78632813 182.86015625 37.19140625 181.7578125 C45.05231593 157.16165609 39.50296841 128.44873216 27.9296875 105.875 C23.37652653 97.33857836 18.11271081 89.51046432 12 82 C11.56349121 81.46197754 11.12698242 80.92395508 10.67724609 80.36962891 C4.93209778 73.33967494 -1.13457418 66.78429261 -7.625 60.4375 C-17.35528562 50.88464392 -24.61771132 41.0666619 -31 29 C-27.21292388 25.18820158 -23.4225725 21.37970185 -19.62915039 17.57421875 C-18.33918193 16.27922212 -17.0501125 14.98332931 -15.76196289 13.68652344 C-13.91007439 11.82250311 -12.05497489 9.96173139 -10.19921875 8.1015625 C-9.62411057 7.52129303 -9.04900238 6.94102356 -8.45646667 6.34317017 C-2.11418307 0 -2.11418307 0 0 0 Z " fill="#EE7716" transform="translate(265,187)"/>
<path d="M0 0 C3.69988244 1.23329415 3.9185412 2.16633343 5.75 5.5 C12.29355956 16.81858951 21.2090169 26.31520794 30.5 35.4375 C35.76209393 40.66305161 40.46983944 46.13294551 45 52 C45.65766357 52.84304688 45.65766357 52.84304688 46.32861328 53.703125 C66.18629346 79.29901399 75.56558322 107.43682839 73 140 C72.2773421 145.20183476 70.80617226 150.07461578 69 155 C68.649375 156.01707031 68.29875 157.03414062 67.9375 158.08203125 C59.81999868 179.5877726 42.24874169 198.96814318 21.41796875 208.66796875 C17.66412005 210.27669126 13.85830359 211.66115648 10 213 C8.54787109 213.51433594 8.54787109 213.51433594 7.06640625 214.0390625 C-0.65739101 216.28179332 -8.37744156 216.30543201 -16.375 216.375 C-18.07039917 216.39602783 -18.07039917 216.39602783 -19.80004883 216.41748047 C-26.93849281 216.37611048 -32.16121382 215.94002275 -37.96875 211.4921875 C-50 198.78571429 -50 198.78571429 -50 196 C-48.92363281 195.84144531 -47.84726563 195.68289063 -46.73828125 195.51953125 C-37.29479445 194.0446313 -28.77666256 191.92949771 -20 188 C-19.14148438 187.63132812 -18.28296875 187.26265625 -17.3984375 186.8828125 C4.81713615 176.65659606 20.0338351 156.81665232 28.359375 134.328125 C36.5108031 108.69247431 32.27416714 80.55649127 20.22192383 56.92138672 C11.79657552 40.93723043 0.775195 26.775195 -12 14 C-11.21753906 13.15695313 -10.43507812 12.31390625 -9.62890625 11.4453125 C-8.60665175 10.33865166 -7.58452284 9.23187479 -6.5625 8.125 C-6.04623047 7.56941406 -5.52996094 7.01382813 -4.99804688 6.44140625 C-2.17895264 3.45250685 -2.17895264 3.45250685 0 0 Z " fill="#F69118" transform="translate(233,217)"/>
<path d="M0 0 C0.06469482 0.58265625 0.12938965 1.1653125 0.19604492 1.765625 C1.55437521 13.63031941 3.39992538 24.72529331 7.32519531 36.00537109 C8.56866524 39.68089545 9.65449249 43.40324834 10.75 47.125 C11.06590088 48.17361206 11.06590088 48.17361206 11.38818359 49.2434082 C16.81969582 67.59533588 13.81509508 86.32718975 4.80859375 102.984375 C-0.0106313 111.01988631 -0.0106313 111.01988631 -3 114 C-3.66 114 -4.32 114 -5 114 C-5.08862305 113.38930664 -5.17724609 112.77861328 -5.26855469 112.14941406 C-7.32007098 98.75246626 -10.53575024 86.75101657 -16.125 74.375 C-23.18251974 58.71323793 -28.0075924 44.37384823 -22.3125 27.3125 C-19.39206778 20.15640544 -9.57718217 0 0 0 Z " fill="#D10027" transform="translate(330,16)"/>
<path d="M0 0 C5.37137367 4.4633191 6.62776413 12.62964696 7.359375 19.25390625 C7.83334195 38.56805956 0.24363468 52.37426514 -11.09375 67.1953125 C-21.66790548 81.01938561 -25.9988125 94.82562968 -28 112 C-34.75683648 109.23319196 -38.18720115 101.28564032 -41.19140625 94.953125 C-45.62460865 84.24490665 -45.99293375 72.11265218 -43 61 C-38.25909678 49.94857019 -28.9686801 41.66113126 -20 34 C-10.55823802 25.84297021 -5.78244135 15.36401933 -1.9453125 3.73828125 C-1 1 -1 1 0 0 Z " fill="#D10027" transform="translate(184,41)"/>
<path d="M0 0 C2.97397616 0.27036147 3.85446026 0.85446026 6 3 C5.51541768 6.59521386 3.73559146 9.40582154 1.96484375 12.53295898 C-4.75756104 24.45523035 -9.64070981 37.15676036 -10 51 C-10.07347656 52.10214844 -10.14695313 53.20429688 -10.22265625 54.33984375 C-10.82663577 69.09862528 -6.66009405 84.43808949 2.69921875 96.12109375 C4 98 4 98 3.6875 100.75 C3.460625 101.4925 3.23375 102.235 3 103 C0.21875 103.26171875 0.21875 103.26171875 -3 103 C-12.94976366 93.96773504 -18.20247412 76.95742657 -19.14794922 63.96728516 C-20.13803564 42.74199971 -15.9315777 17.91441962 -1.49853516 1.26831055 C-1.00401855 0.84976807 -0.50950195 0.43122559 0 0 Z " fill="#FFC71C" transform="translate(209,262)"/>
<path d="M0 0 C2.5 0.25 2.5 0.25 4.5 2.25 C4.17028521 5.54714793 3.8773161 6.8726839 1.5 9.25 C-1.625 8.875 -1.625 8.875 -4.5 8.25 C-4.625 5.375 -4.625 5.375 -4.5 2.25 C-2.5 0.25 -2.5 0.25 0 0 Z " fill="#FFC71C" transform="translate(220.5,247.75)"/>
</svg>
